<svg width="25" height="25" viewBox="0 0 24 24" fill="none" xmlns="http://www.w3.org/2000/svg">
    <path d="M17.4612 6.45C17.0612 6.05 16.4612 5.95 15.9612 6.15C15.9612 5.85 15.8612 5.55 15.5612 5.25C15.3612 5.05 14.9612 4.85 14.4612 4.85C14.1612 4.85 13.9612 4.95 13.7612 4.95C13.7612 4.75 13.6612 4.65 13.5612 4.45C13.0612 3.85 12.0612 3.85 11.5612 4.45C11.3612 4.65 11.1612 4.85 11.1612 5.05C10.9612 5.05 10.7612 4.95 10.5612 4.95C10.0612 4.95 9.76122 5.15 9.46122 5.45C8.96122 5.95 8.96122 6.75 8.96122 6.75V10.55C8.66122 10.25 8.16122 9.75 7.46122 9.75C7.26122 9.75 6.96122 9.85 6.76122 9.95C6.36122 10.15 6.16122 10.45 6.06122 10.85C5.76122 11.85 6.66122 13.25 6.66122 13.35C6.76122 13.45 7.86122 16.05 8.86122 17.15C9.86122 18.35 10.9612 19.05 13.7612 19.05C16.6612 19.05 17.9612 17.45 17.9612 13.95V8.45C17.9612 8.35 18.0612 7.15 17.4612 6.45ZM11.9612 6.05C11.9612 5.75 11.8612 5.05 12.4612 5.05C12.9612 5.05 12.9612 5.55 12.9612 6.05V10.05C12.9612 10.35 13.1612 10.55 13.4612 10.55C13.7612 10.55 13.9612 10.35 13.9612 10.05V6.25C13.9612 6.25 13.9612 5.85 14.4612 5.85C15.0612 5.85 14.9612 6.75 14.9612 6.75V10.05C14.9612 10.35 15.1612 10.55 15.4612 10.55C15.7612 10.55 15.9612 10.35 15.9612 10.05V7.65C15.9612 7.55 15.9612 7.05 16.4612 7.05C16.9612 7.05 16.9612 8.05 16.9612 8.05V13.95C16.9612 17.35 15.6612 18.05 13.7612 18.05C11.3612 18.05 10.4612 17.55 9.66122 16.45C8.76122 15.45 7.56122 12.85 7.56122 12.75C7.26122 12.45 6.86122 11.55 6.96122 11.15C6.96122 11.05 7.06122 10.95 7.16122 10.85C7.26122 10.85 7.36122 10.75 7.36122 10.75C7.76122 10.75 8.16122 11.25 8.26122 11.45L8.86122 12.35C8.96122 12.55 9.26122 12.65 9.46122 12.55C9.86122 12.55 9.96122 12.35 9.96122 12.15V6.95C9.96122 6.55 9.96122 5.95 10.4612 5.95C10.8612 5.95 10.9612 6.25 10.9612 6.75V10.05C10.9612 10.35 11.1612 10.55 11.4612 10.55C11.7612 10.55 11.9612 10.35 11.9612 10.05V6.05Z" fill="#ea6c20"/>
</svg>
