<svg width="30" height="30" viewBox="0 0 24 24" fill="none" xmlns="http://www.w3.org/2000/svg">
    <path d="M18.1001 20H18.7001C18.7001 20 18.7001 19.8 18.7001 19.4L18.1001 20Z" fill="white"/>
    <path d="M12.5 17.9C11.8 17.2 11.5 16.1 11.7 15.1C11.9 14.1 12.5 13.3 13.4 13C13.4 12.9 13.3 12.8 13.3 12.8C13.3 12.2 14.1 12.4 14.7 11.3C14.7 11.3 17.4 4 11.8 4C6.3 4 9 11.3 9 11.3C9.6 12.3 10.4 12.1 10.4 12.8C10.4 13.5 9.7 13.5 9 13.6C7.9 13.7 6.9 13.5 5.9 15.3C5.3 16.4 5 20 5 20H14.6L12.5 17.9Z" fill="white"/>
    <path d="M18.8 14.1C18.6 14 18.3 14 18.1 14C17.4 14 16.8 14.6 16.4 15.1C16 14.6 15.4 14 14.7 14C14.4 14 14.2 14 14 14.1C12.8 14.5 12.6 16.1 13.5 17L16.5 19.9L19.5 17C20.3 16.1 20 14.5 18.8 14.1Z" fill="white"/>
</svg>
