<svg width="25" height="25" viewBox="0 0 25 25" fill="none" xmlns="http://www.w3.org/2000/svg">
    <path d="M5.20841 16.5243L4.16675 20.7951L8.43758 19.7535L18.0209 10.1701L14.7917 6.94098L5.20841 16.5243ZM5.72925 19.7535L5.31258 19.2326L5.72925 17.1493L7.81258 19.2326L5.72925 19.7535ZM15.5209 8.71181L7.08341 17.0451L6.45842 16.4201L14.8959 8.08681L15.5209 8.71181Z" fill="#EA6C20"/>
    <path d="M20.1041 4.85765C18.9583 3.71182 17.3958 4.33682 17.3958 4.33682L15.8333 5.89932L19.0624 9.12849L20.6249 7.56599C20.6249 7.46182 21.2499 6.00349 20.1041 4.85765ZM18.1249 5.79515L17.6041 5.27432C18.2291 4.64932 18.7499 5.17015 18.7499 5.17015L18.1249 5.79515Z" fill="#EA6C20"/>
</svg>
