<svg width="30" height="30" viewBox="0 0 24 24" fill="none" xmlns="http://www.w3.org/2000/svg">
    <path d="M5 19V4H4V20H20V19H5Z" fill="#ea6c20"/>
    <path d="M16 9.00002C15.31 10 14.59 11 14 11C13.974 11.001 13.944 11.001 13.913 11.001C13.312 11.001 12.749 10.841 12.263 10.561C11.64 10.211 10.876 9.99902 10.063 9.99902C10.041 9.99902 10.018 9.99902 9.99602 9.99902C8.39602 10.115 6.98702 10.863 6.00502 11.992L5.99902 14.339C6.76902 13.219 8.31902 11.499 9.99902 11.499C10.013 11.499 10.03 11.499 10.047 11.499C10.626 11.499 11.168 11.655 11.634 11.927C12.277 12.285 13.063 12.5 13.898 12.5C13.933 12.5 13.969 12.5 14.004 12.499C15.399 12.499 16.339 11.179 17.249 9.89902C18.159 8.61902 18.999 7.49902 19.999 7.49902V5.99902C18.189 5.99902 16.999 7.60902 15.999 8.99902L16 9.00002Z" fill="#ea6c20"/>
</svg>
