<svg width="30" height="30" viewBox="0 0 24 24" fill="none" xmlns="http://www.w3.org/2000/svg">
    <path d="M17 4L10 10.1C9.7 10 9.4 10 9 10C6.2 10 4 12.2 4 15C4 17.8 6.3 20 9 20C11.7 20 14 17.8 14 15C14 14.7 14 14.4 13.9 14.1L15 13V11H17V9H19L20 8V4H17ZM16 10H14.3L16 8.6V10ZM19 7.6L18.6 8H16.7L19 6V7.6ZM11.3 11.6L12 12L14 10.3V12.6L13.2 13.4L12.9 13.8L13 14.3C13 14.5 13.1 14.8 13.1 15C13.1 17.2 11.3 19 9.1 19C6.9 19 5.1 17.2 5.1 15C5.1 12.8 6.9 11 9.1 11C9.4 11 9.6 11 9.9 11.1L10.4 11.2L10.8 10.9L17.4 5H19L11.3 11.6Z" fill="white"/>
    <path d="M10 15.5C10 16.328 9.328 17 8.5 17C7.672 17 7 16.328 7 15.5C7 14.672 7.672 14 8.5 14C9.328 14 10 14.672 10 15.5Z" fill="white"/>
</svg>
