<svg width="25" height="25" viewBox="0 0 25 25" fill="none" xmlns="http://www.w3.org/2000/svg">
    <path d="M17.7083 7.29169C17.7083 7.29169 17.7083 6.76044 15.625 6.45835V5.72919C15.6073 4.86252 14.901 4.16669 14.0312 4.16669H10.9062C10.0573 4.1844 9.375 4.8771 9.375 5.72919V6.45835C8.57812 6.52919 7.8625 6.83231 7.28437 7.29794L6.25 7.29169V8.33335H18.75V7.29169H17.7083ZM10.4167 5.72919C10.4219 5.44377 10.6521 5.21356 10.9365 5.20835H14.0625H14.0635C14.3573 5.20835 14.5979 5.43752 14.6146 5.72815V6.31252C14.2469 6.26877 13.8198 6.24481 13.3875 6.24481C13.2656 6.24481 13.1448 6.2469 13.024 6.25106C12.4479 6.25106 10.875 6.25106 10.4167 6.32398V5.73023V5.72919Z" fill="#EA6C20"/>
    <path d="M6.25 9.375V10.4167H7.29167V19.7917C8.57708 20.449 10.0958 20.8333 11.7042 20.8333C11.7062 20.8333 11.7073 20.8333 11.7094 20.8333H13.2927C13.2937 20.8333 13.2958 20.8333 13.2969 20.8333C14.9052 20.8333 16.424 20.449 17.7646 19.7656L17.7083 10.4167H18.75V9.375H6.25ZM10.4167 18.6667C10.0625 18.625 9.71528 18.566 9.375 18.4896V11.4583H10.4167V18.6667ZM13.5417 18.75H11.4583V11.4583H13.5417V18.75ZM15.625 18.4583C15.3469 18.5313 14.9937 18.6 14.6354 18.65L14.5833 11.4583H15.625V18.4583Z" fill="#EA6C20"/>
</svg>
